<mxfile host="Electron" agent="Mozilla/5.0 (Windows NT 10.0; Win64; x64) AppleWebKit/537.36 (KHTML, like Gecko) draw.io/28.1.2 Chrome/138.0.7204.243 Electron/37.4.0 Safari/537.36" version="28.1.2">
  <diagram name="Page-1" id="TDIs4agkzmpdHli8bAOU">
    <mxGraphModel dx="1028" dy="707" grid="1" gridSize="10" guides="1" tooltips="1" connect="1" arrows="1" fold="1" page="1" pageScale="1" pageWidth="1654" pageHeight="1169" math="0" shadow="0">
      <root>
        <mxCell id="0" />
        <mxCell id="1" parent="0" />
        <mxCell id="u5d0pwJjkVFeFX7DWkDp-1" value="Entrant Hoime Screen&lt;div&gt;US 01.01.03&lt;/div&gt;" style="rounded=0;whiteSpace=wrap;html=1;" parent="1" vertex="1">
          <mxGeometry x="1150" y="40" width="120" height="60" as="geometry" />
        </mxCell>
        <mxCell id="u5d0pwJjkVFeFX7DWkDp-2" value="User Action" style="rhombus;whiteSpace=wrap;html=1;" parent="1" vertex="1">
          <mxGeometry x="1170" y="220" width="80" height="80" as="geometry" />
        </mxCell>
        <mxCell id="u5d0pwJjkVFeFX7DWkDp-3" value="" style="endArrow=classic;html=1;rounded=0;exitX=0.5;exitY=1;exitDx=0;exitDy=0;entryX=0.5;entryY=0;entryDx=0;entryDy=0;" parent="1" source="u5d0pwJjkVFeFX7DWkDp-1" target="u5d0pwJjkVFeFX7DWkDp-2" edge="1">
          <mxGeometry width="50" height="50" relative="1" as="geometry">
            <mxPoint x="500" y="390" as="sourcePoint" />
            <mxPoint x="550" y="340" as="targetPoint" />
          </mxGeometry>
        </mxCell>
        <mxCell id="u5d0pwJjkVFeFX7DWkDp-5" value="&lt;span style=&quot;background-color: transparent; color: light-dark(rgb(0, 0, 0), rgb(255, 255, 255));&quot;&gt;QR Scanner Screen&lt;/span&gt;&lt;div&gt;US 01.06.01&lt;/div&gt;" style="rounded=0;whiteSpace=wrap;html=1;" parent="1" vertex="1">
          <mxGeometry x="40" y="440" width="120" height="60" as="geometry" />
        </mxCell>
        <mxCell id="u5d0pwJjkVFeFX7DWkDp-6" value="&lt;div&gt;Filter Events&lt;/div&gt;&lt;div&gt;US 01.01.04&lt;/div&gt;" style="rounded=0;whiteSpace=wrap;html=1;" parent="1" vertex="1">
          <mxGeometry x="270" y="440" width="120" height="60" as="geometry" />
        </mxCell>
        <mxCell id="u5d0pwJjkVFeFX7DWkDp-8" value="Event Detail Screen&lt;div&gt;US 01.06.02, US 01.05.04, 01.05.05&lt;/div&gt;" style="rounded=0;whiteSpace=wrap;html=1;" parent="1" vertex="1">
          <mxGeometry x="110" y="540" width="120" height="60" as="geometry" />
        </mxCell>
        <mxCell id="u5d0pwJjkVFeFX7DWkDp-9" value="User&lt;div&gt;&amp;nbsp;Decision&lt;/div&gt;" style="rhombus;whiteSpace=wrap;html=1;" parent="1" vertex="1">
          <mxGeometry x="140" y="640" width="80" height="80" as="geometry" />
        </mxCell>
        <mxCell id="u5d0pwJjkVFeFX7DWkDp-10" value="&lt;div&gt;Join Waiting List&lt;/div&gt;&lt;div&gt;US 01.01.01&lt;/div&gt;" style="rounded=0;whiteSpace=wrap;html=1;" parent="1" vertex="1">
          <mxGeometry x="40" y="767" width="120" height="60" as="geometry" />
        </mxCell>
        <mxCell id="u5d0pwJjkVFeFX7DWkDp-11" value="Leave" style="rhombus;whiteSpace=wrap;html=1;" parent="1" vertex="1">
          <mxGeometry x="230" y="757" width="80" height="80" as="geometry" />
        </mxCell>
        <mxCell id="u5d0pwJjkVFeFX7DWkDp-13" value="Confirmation Message" style="rounded=0;whiteSpace=wrap;html=1;" parent="1" vertex="1">
          <mxGeometry x="40" y="890" width="120" height="60" as="geometry" />
        </mxCell>
        <mxCell id="u5d0pwJjkVFeFX7DWkDp-15" value="Leave Waiting List&amp;nbsp;&lt;div&gt;US 01.01.02&lt;/div&gt;" style="rounded=0;whiteSpace=wrap;html=1;" parent="1" vertex="1">
          <mxGeometry x="220" y="890" width="120" height="60" as="geometry" />
        </mxCell>
        <mxCell id="u5d0pwJjkVFeFX7DWkDp-16" value="Removed from Waiting List" style="rounded=0;whiteSpace=wrap;html=1;" parent="1" vertex="1">
          <mxGeometry x="220" y="1020" width="120" height="60" as="geometry" />
        </mxCell>
        <mxCell id="u5d0pwJjkVFeFX7DWkDp-23" value="" style="endArrow=classic;html=1;rounded=0;exitX=0;exitY=0.5;exitDx=0;exitDy=0;entryX=0.333;entryY=0;entryDx=0;entryDy=0;entryPerimeter=0;" parent="1" source="u5d0pwJjkVFeFX7DWkDp-2" target="u5d0pwJjkVFeFX7DWkDp-5" edge="1">
          <mxGeometry width="50" height="50" relative="1" as="geometry">
            <mxPoint x="670" y="300" as="sourcePoint" />
            <mxPoint x="240" y="420" as="targetPoint" />
          </mxGeometry>
        </mxCell>
        <mxCell id="u5d0pwJjkVFeFX7DWkDp-24" value="" style="endArrow=classic;html=1;rounded=0;entryX=1;entryY=0;entryDx=0;entryDy=0;" parent="1" source="u5d0pwJjkVFeFX7DWkDp-2" target="u5d0pwJjkVFeFX7DWkDp-6" edge="1">
          <mxGeometry width="50" height="50" relative="1" as="geometry">
            <mxPoint x="820" y="220" as="sourcePoint" />
            <mxPoint x="880" y="420" as="targetPoint" />
          </mxGeometry>
        </mxCell>
        <mxCell id="u5d0pwJjkVFeFX7DWkDp-27" value="Scan QR" style="text;html=1;align=center;verticalAlign=middle;whiteSpace=wrap;rounded=0;" parent="1" vertex="1">
          <mxGeometry x="80" y="390" width="60" height="30" as="geometry" />
        </mxCell>
        <mxCell id="u5d0pwJjkVFeFX7DWkDp-30" value="Browse Events" style="text;html=1;align=center;verticalAlign=middle;whiteSpace=wrap;rounded=0;" parent="1" vertex="1">
          <mxGeometry x="370" y="400" width="60" height="30" as="geometry" />
        </mxCell>
        <mxCell id="u5d0pwJjkVFeFX7DWkDp-32" value="" style="endArrow=classic;html=1;rounded=0;exitX=0.367;exitY=1.037;exitDx=0;exitDy=0;exitPerimeter=0;entryX=0.357;entryY=-0.043;entryDx=0;entryDy=0;entryPerimeter=0;" parent="1" source="u5d0pwJjkVFeFX7DWkDp-5" target="u5d0pwJjkVFeFX7DWkDp-8" edge="1">
          <mxGeometry width="50" height="50" relative="1" as="geometry">
            <mxPoint x="250" y="550" as="sourcePoint" />
            <mxPoint x="300" y="500" as="targetPoint" />
          </mxGeometry>
        </mxCell>
        <mxCell id="u5d0pwJjkVFeFX7DWkDp-34" value="" style="endArrow=classic;html=1;rounded=0;exitX=0.583;exitY=1;exitDx=0;exitDy=0;exitPerimeter=0;entryX=0.857;entryY=-0.017;entryDx=0;entryDy=0;entryPerimeter=0;" parent="1" source="u5d0pwJjkVFeFX7DWkDp-6" target="u5d0pwJjkVFeFX7DWkDp-8" edge="1">
          <mxGeometry width="50" height="50" relative="1" as="geometry">
            <mxPoint x="410" y="640" as="sourcePoint" />
            <mxPoint x="460" y="590" as="targetPoint" />
          </mxGeometry>
        </mxCell>
        <mxCell id="u5d0pwJjkVFeFX7DWkDp-36" value="" style="endArrow=classic;html=1;rounded=0;entryX=0.5;entryY=0;entryDx=0;entryDy=0;" parent="1" target="u5d0pwJjkVFeFX7DWkDp-9" edge="1">
          <mxGeometry width="50" height="50" relative="1" as="geometry">
            <mxPoint x="180" y="603" as="sourcePoint" />
            <mxPoint x="360" y="540" as="targetPoint" />
          </mxGeometry>
        </mxCell>
        <mxCell id="u5d0pwJjkVFeFX7DWkDp-37" value="" style="endArrow=classic;html=1;rounded=0;exitX=0;exitY=1;exitDx=0;exitDy=0;entryX=0.653;entryY=-0.04;entryDx=0;entryDy=0;entryPerimeter=0;" parent="1" source="u5d0pwJjkVFeFX7DWkDp-9" target="u5d0pwJjkVFeFX7DWkDp-10" edge="1">
          <mxGeometry width="50" height="50" relative="1" as="geometry">
            <mxPoint x="370" y="730" as="sourcePoint" />
            <mxPoint x="420" y="680" as="targetPoint" />
          </mxGeometry>
        </mxCell>
        <mxCell id="u5d0pwJjkVFeFX7DWkDp-38" value="" style="endArrow=classic;html=1;rounded=0;exitX=0.88;exitY=0.708;exitDx=0;exitDy=0;exitPerimeter=0;entryX=0.5;entryY=0;entryDx=0;entryDy=0;" parent="1" source="u5d0pwJjkVFeFX7DWkDp-9" target="u5d0pwJjkVFeFX7DWkDp-11" edge="1">
          <mxGeometry width="50" height="50" relative="1" as="geometry">
            <mxPoint x="370" y="730" as="sourcePoint" />
            <mxPoint x="420" y="680" as="targetPoint" />
          </mxGeometry>
        </mxCell>
        <mxCell id="u5d0pwJjkVFeFX7DWkDp-39" value="Already Joint" style="text;html=1;align=center;verticalAlign=middle;whiteSpace=wrap;rounded=0;" parent="1" vertex="1">
          <mxGeometry x="250" y="700" width="60" height="30" as="geometry" />
        </mxCell>
        <mxCell id="u5d0pwJjkVFeFX7DWkDp-40" value="Join" style="text;html=1;align=center;verticalAlign=middle;whiteSpace=wrap;rounded=0;" parent="1" vertex="1">
          <mxGeometry x="80" y="700" width="60" height="30" as="geometry" />
        </mxCell>
        <mxCell id="u5d0pwJjkVFeFX7DWkDp-41" value="" style="endArrow=classic;html=1;rounded=0;exitX=0.5;exitY=1;exitDx=0;exitDy=0;entryX=0.5;entryY=0;entryDx=0;entryDy=0;" parent="1" source="u5d0pwJjkVFeFX7DWkDp-10" target="u5d0pwJjkVFeFX7DWkDp-13" edge="1">
          <mxGeometry width="50" height="50" relative="1" as="geometry">
            <mxPoint x="370" y="730" as="sourcePoint" />
            <mxPoint x="420" y="680" as="targetPoint" />
          </mxGeometry>
        </mxCell>
        <mxCell id="u5d0pwJjkVFeFX7DWkDp-42" value="" style="endArrow=classic;html=1;rounded=0;entryX=0.427;entryY=0.03;entryDx=0;entryDy=0;exitX=0.5;exitY=1;exitDx=0;exitDy=0;entryPerimeter=0;" parent="1" source="u5d0pwJjkVFeFX7DWkDp-11" target="u5d0pwJjkVFeFX7DWkDp-15" edge="1">
          <mxGeometry width="50" height="50" relative="1" as="geometry">
            <mxPoint x="370" y="730" as="sourcePoint" />
            <mxPoint x="420" y="680" as="targetPoint" />
          </mxGeometry>
        </mxCell>
        <mxCell id="u5d0pwJjkVFeFX7DWkDp-43" value="Yes" style="text;html=1;align=center;verticalAlign=middle;whiteSpace=wrap;rounded=0;" parent="1" vertex="1">
          <mxGeometry x="280" y="850" width="60" height="30" as="geometry" />
        </mxCell>
        <mxCell id="u5d0pwJjkVFeFX7DWkDp-44" value="" style="endArrow=classic;html=1;rounded=0;exitX=0.413;exitY=0.99;exitDx=0;exitDy=0;exitPerimeter=0;entryX=0.413;entryY=-0.017;entryDx=0;entryDy=0;entryPerimeter=0;" parent="1" source="u5d0pwJjkVFeFX7DWkDp-15" target="u5d0pwJjkVFeFX7DWkDp-16" edge="1">
          <mxGeometry width="50" height="50" relative="1" as="geometry">
            <mxPoint x="370" y="1030" as="sourcePoint" />
            <mxPoint x="420" y="980" as="targetPoint" />
          </mxGeometry>
        </mxCell>
        <mxCell id="u5d0pwJjkVFeFX7DWkDp-45" value="Profile Screen&amp;nbsp;&lt;div&gt;US 01.02.01,&amp;nbsp;&lt;span style=&quot;background-color: transparent; color: light-dark(rgb(0, 0, 0), rgb(255, 255, 255));&quot;&gt;US 01.02.02&lt;/span&gt;&lt;/div&gt;" style="rounded=0;whiteSpace=wrap;html=1;" parent="1" vertex="1">
          <mxGeometry x="940" y="440" width="120" height="60" as="geometry" />
        </mxCell>
        <mxCell id="u5d0pwJjkVFeFX7DWkDp-46" value="" style="endArrow=classic;html=1;rounded=0;entryX=0.83;entryY=0.037;entryDx=0;entryDy=0;entryPerimeter=0;" parent="1" source="u5d0pwJjkVFeFX7DWkDp-2" target="u5d0pwJjkVFeFX7DWkDp-45" edge="1">
          <mxGeometry width="50" height="50" relative="1" as="geometry">
            <mxPoint x="880" y="420" as="sourcePoint" />
            <mxPoint x="990" y="540" as="targetPoint" />
          </mxGeometry>
        </mxCell>
        <mxCell id="u5d0pwJjkVFeFX7DWkDp-47" value="" style="endArrow=classic;html=1;rounded=0;entryX=0.65;entryY=-0.037;entryDx=0;entryDy=0;entryPerimeter=0;" parent="1" source="u5d0pwJjkVFeFX7DWkDp-50" target="u5d0pwJjkVFeFX7DWkDp-51" edge="1">
          <mxGeometry width="50" height="50" relative="1" as="geometry">
            <mxPoint x="570" y="630" as="sourcePoint" />
            <mxPoint x="605" y="595" as="targetPoint" />
          </mxGeometry>
        </mxCell>
        <mxCell id="u5d0pwJjkVFeFX7DWkDp-49" value="View Profile" style="text;html=1;align=center;verticalAlign=middle;whiteSpace=wrap;rounded=0;" parent="1" vertex="1">
          <mxGeometry x="860" y="380" width="60" height="30" as="geometry" />
        </mxCell>
        <mxCell id="u5d0pwJjkVFeFX7DWkDp-50" value="Update&lt;div&gt;&amp;nbsp;Info ?&lt;/div&gt;" style="rhombus;whiteSpace=wrap;html=1;" parent="1" vertex="1">
          <mxGeometry x="790" y="555" width="80" height="80" as="geometry" />
        </mxCell>
        <mxCell id="u5d0pwJjkVFeFX7DWkDp-51" value="Save Profile Changes&lt;div&gt;US 01.02.02&lt;/div&gt;" style="rounded=0;whiteSpace=wrap;html=1;" parent="1" vertex="1">
          <mxGeometry x="700" y="710" width="120" height="60" as="geometry" />
        </mxCell>
        <mxCell id="u5d0pwJjkVFeFX7DWkDp-52" value="" style="endArrow=classic;html=1;rounded=0;exitX=0;exitY=1;exitDx=0;exitDy=0;entryX=0.5;entryY=0;entryDx=0;entryDy=0;" parent="1" source="u5d0pwJjkVFeFX7DWkDp-45" target="u5d0pwJjkVFeFX7DWkDp-50" edge="1">
          <mxGeometry width="50" height="50" relative="1" as="geometry">
            <mxPoint x="730" y="630" as="sourcePoint" />
            <mxPoint x="780" y="580" as="targetPoint" />
          </mxGeometry>
        </mxCell>
        <mxCell id="u5d0pwJjkVFeFX7DWkDp-53" value="Yes" style="text;html=1;align=center;verticalAlign=middle;whiteSpace=wrap;rounded=0;" parent="1" vertex="1">
          <mxGeometry x="720" y="610" width="60" height="30" as="geometry" />
        </mxCell>
        <mxCell id="u5d0pwJjkVFeFX7DWkDp-54" value="" style="endArrow=classic;html=1;rounded=0;entryX=0;entryY=0.5;entryDx=0;entryDy=0;" parent="1" source="u5d0pwJjkVFeFX7DWkDp-50" target="u5d0pwJjkVFeFX7DWkDp-57" edge="1">
          <mxGeometry width="50" height="50" relative="1" as="geometry">
            <mxPoint x="730" y="630" as="sourcePoint" />
            <mxPoint x="875.5172413793102" y="700" as="targetPoint" />
            <Array as="points" />
          </mxGeometry>
        </mxCell>
        <mxCell id="u5d0pwJjkVFeFX7DWkDp-56" value="Delete&amp;nbsp; &amp;nbsp;Account ?" style="text;html=1;align=center;verticalAlign=middle;whiteSpace=wrap;rounded=0;" parent="1" vertex="1">
          <mxGeometry x="930" y="620" width="60" height="30" as="geometry" />
        </mxCell>
        <mxCell id="u5d0pwJjkVFeFX7DWkDp-57" value="Confirm" style="rhombus;whiteSpace=wrap;html=1;" parent="1" vertex="1">
          <mxGeometry x="990" y="660" width="80" height="80" as="geometry" />
        </mxCell>
        <mxCell id="u5d0pwJjkVFeFX7DWkDp-58" value="" style="endArrow=classic;html=1;rounded=0;entryX=0.75;entryY=1;entryDx=0;entryDy=0;exitX=0.5;exitY=0;exitDx=0;exitDy=0;" parent="1" source="u5d0pwJjkVFeFX7DWkDp-57" target="u5d0pwJjkVFeFX7DWkDp-45" edge="1">
          <mxGeometry width="50" height="50" relative="1" as="geometry">
            <mxPoint x="730" y="630" as="sourcePoint" />
            <mxPoint x="780" y="580" as="targetPoint" />
          </mxGeometry>
        </mxCell>
        <mxCell id="u5d0pwJjkVFeFX7DWkDp-59" value="No" style="text;html=1;align=center;verticalAlign=middle;whiteSpace=wrap;rounded=0;" parent="1" vertex="1">
          <mxGeometry x="1030" y="570" width="60" height="30" as="geometry" />
        </mxCell>
        <mxCell id="u5d0pwJjkVFeFX7DWkDp-62" value="Delete Profile&amp;nbsp;&lt;div&gt;US 01.02.04&lt;/div&gt;" style="rounded=0;whiteSpace=wrap;html=1;" parent="1" vertex="1">
          <mxGeometry x="970" y="890" width="120" height="60" as="geometry" />
        </mxCell>
        <mxCell id="u5d0pwJjkVFeFX7DWkDp-63" value="" style="endArrow=classic;html=1;rounded=0;exitX=0.5;exitY=1;exitDx=0;exitDy=0;entryX=0.5;entryY=0;entryDx=0;entryDy=0;" parent="1" source="u5d0pwJjkVFeFX7DWkDp-57" target="u5d0pwJjkVFeFX7DWkDp-62" edge="1">
          <mxGeometry width="50" height="50" relative="1" as="geometry">
            <mxPoint x="730" y="630" as="sourcePoint" />
            <mxPoint x="780" y="580" as="targetPoint" />
          </mxGeometry>
        </mxCell>
        <mxCell id="u5d0pwJjkVFeFX7DWkDp-64" value="Notification Screen&amp;nbsp;&lt;div&gt;US 01.04.01, US 01.04.02&lt;/div&gt;" style="rounded=0;whiteSpace=wrap;html=1;" parent="1" vertex="1">
          <mxGeometry x="1230" y="440" width="120" height="60" as="geometry" />
        </mxCell>
        <mxCell id="u5d0pwJjkVFeFX7DWkDp-65" value="Notification Type" style="rhombus;whiteSpace=wrap;html=1;" parent="1" vertex="1">
          <mxGeometry x="1250" y="520" width="80" height="80" as="geometry" />
        </mxCell>
        <mxCell id="u5d0pwJjkVFeFX7DWkDp-66" value="Accept/&lt;div&gt;Decline&lt;/div&gt;" style="rhombus;whiteSpace=wrap;html=1;" parent="1" vertex="1">
          <mxGeometry x="1150" y="640" width="80" height="80" as="geometry" />
        </mxCell>
        <mxCell id="u5d0pwJjkVFeFX7DWkDp-67" value="Still on Waiting List&amp;nbsp;&lt;div&gt;US 01.05.01&lt;/div&gt;" style="rounded=0;whiteSpace=wrap;html=1;" parent="1" vertex="1">
          <mxGeometry x="1330" y="640" width="120" height="60" as="geometry" />
        </mxCell>
        <mxCell id="u5d0pwJjkVFeFX7DWkDp-68" value="Accept Invitation&lt;div&gt;US 01.05.02&lt;/div&gt;" style="rounded=0;whiteSpace=wrap;html=1;" parent="1" vertex="1">
          <mxGeometry x="1130" y="757" width="120" height="60" as="geometry" />
        </mxCell>
        <mxCell id="u5d0pwJjkVFeFX7DWkDp-69" value="Enrolled in Event" style="rounded=0;whiteSpace=wrap;html=1;" parent="1" vertex="1">
          <mxGeometry x="1130" y="850" width="120" height="60" as="geometry" />
        </mxCell>
        <mxCell id="u5d0pwJjkVFeFX7DWkDp-70" value="Decline Invitation&lt;div&gt;US 01.05.03&lt;/div&gt;" style="rounded=0;whiteSpace=wrap;html=1;" parent="1" vertex="1">
          <mxGeometry x="1360" y="757" width="120" height="60" as="geometry" />
        </mxCell>
        <mxCell id="u5d0pwJjkVFeFX7DWkDp-71" value="System Redraws&lt;div&gt;US 01.05.01&lt;/div&gt;" style="rounded=0;whiteSpace=wrap;html=1;" parent="1" vertex="1">
          <mxGeometry x="1370" y="870" width="120" height="60" as="geometry" />
        </mxCell>
        <mxCell id="u5d0pwJjkVFeFX7DWkDp-72" value="" style="endArrow=classic;html=1;rounded=0;entryX=0.083;entryY=0.05;entryDx=0;entryDy=0;entryPerimeter=0;exitX=1;exitY=0.5;exitDx=0;exitDy=0;" parent="1" source="u5d0pwJjkVFeFX7DWkDp-66" target="u5d0pwJjkVFeFX7DWkDp-70" edge="1">
          <mxGeometry width="50" height="50" relative="1" as="geometry">
            <mxPoint x="1200" y="710" as="sourcePoint" />
            <mxPoint x="1250" y="660" as="targetPoint" />
            <Array as="points" />
          </mxGeometry>
        </mxCell>
        <mxCell id="u5d0pwJjkVFeFX7DWkDp-73" value="" style="endArrow=classic;html=1;rounded=0;entryX=0.5;entryY=0;entryDx=0;entryDy=0;exitX=0.5;exitY=1;exitDx=0;exitDy=0;" parent="1" source="u5d0pwJjkVFeFX7DWkDp-66" target="u5d0pwJjkVFeFX7DWkDp-68" edge="1">
          <mxGeometry width="50" height="50" relative="1" as="geometry">
            <mxPoint x="1030" y="630" as="sourcePoint" />
            <mxPoint x="1080" y="580" as="targetPoint" />
            <Array as="points" />
          </mxGeometry>
        </mxCell>
        <mxCell id="u5d0pwJjkVFeFX7DWkDp-75" value="Accept" style="text;html=1;align=center;verticalAlign=middle;whiteSpace=wrap;rounded=0;" parent="1" vertex="1">
          <mxGeometry x="1120" y="710" width="60" height="30" as="geometry" />
        </mxCell>
        <mxCell id="u5d0pwJjkVFeFX7DWkDp-77" value="Decline" style="text;html=1;align=center;verticalAlign=middle;whiteSpace=wrap;rounded=0;" parent="1" vertex="1">
          <mxGeometry x="1270" y="737" width="60" height="30" as="geometry" />
        </mxCell>
        <mxCell id="u5d0pwJjkVFeFX7DWkDp-78" value="" style="endArrow=classic;html=1;rounded=0;entryX=0.5;entryY=0;entryDx=0;entryDy=0;exitX=0.5;exitY=1;exitDx=0;exitDy=0;" parent="1" source="u5d0pwJjkVFeFX7DWkDp-68" target="u5d0pwJjkVFeFX7DWkDp-69" edge="1">
          <mxGeometry width="50" height="50" relative="1" as="geometry">
            <mxPoint x="1030" y="630" as="sourcePoint" />
            <mxPoint x="1080" y="580" as="targetPoint" />
          </mxGeometry>
        </mxCell>
        <mxCell id="u5d0pwJjkVFeFX7DWkDp-80" value="" style="endArrow=classic;html=1;rounded=0;" parent="1" target="u5d0pwJjkVFeFX7DWkDp-71" edge="1">
          <mxGeometry width="50" height="50" relative="1" as="geometry">
            <mxPoint x="1430" y="820" as="sourcePoint" />
            <mxPoint x="1480" y="770" as="targetPoint" />
          </mxGeometry>
        </mxCell>
        <mxCell id="u5d0pwJjkVFeFX7DWkDp-81" value="" style="endArrow=classic;html=1;rounded=0;entryX=0.563;entryY=-0.057;entryDx=0;entryDy=0;entryPerimeter=0;exitX=1;exitY=0.5;exitDx=0;exitDy=0;" parent="1" source="u5d0pwJjkVFeFX7DWkDp-65" target="u5d0pwJjkVFeFX7DWkDp-67" edge="1">
          <mxGeometry width="50" height="50" relative="1" as="geometry">
            <mxPoint x="1030" y="630" as="sourcePoint" />
            <mxPoint x="1080" y="580" as="targetPoint" />
          </mxGeometry>
        </mxCell>
        <mxCell id="u5d0pwJjkVFeFX7DWkDp-82" value="" style="endArrow=classic;html=1;rounded=0;exitX=0;exitY=0.5;exitDx=0;exitDy=0;entryX=0.5;entryY=0;entryDx=0;entryDy=0;" parent="1" source="u5d0pwJjkVFeFX7DWkDp-65" target="u5d0pwJjkVFeFX7DWkDp-66" edge="1">
          <mxGeometry width="50" height="50" relative="1" as="geometry">
            <mxPoint x="1030" y="630" as="sourcePoint" />
            <mxPoint x="1080" y="580" as="targetPoint" />
          </mxGeometry>
        </mxCell>
        <mxCell id="u5d0pwJjkVFeFX7DWkDp-83" value="Win" style="text;html=1;align=center;verticalAlign=middle;whiteSpace=wrap;rounded=0;" parent="1" vertex="1">
          <mxGeometry x="1160" y="555" width="60" height="30" as="geometry" />
        </mxCell>
        <mxCell id="u5d0pwJjkVFeFX7DWkDp-84" value="Lose" style="text;html=1;align=center;verticalAlign=middle;whiteSpace=wrap;rounded=0;" parent="1" vertex="1">
          <mxGeometry x="1360" y="560" width="60" height="30" as="geometry" />
        </mxCell>
        <mxCell id="u5d0pwJjkVFeFX7DWkDp-85" value="" style="endArrow=classic;html=1;rounded=0;exitX=0.5;exitY=1;exitDx=0;exitDy=0;" parent="1" source="u5d0pwJjkVFeFX7DWkDp-64" target="u5d0pwJjkVFeFX7DWkDp-65" edge="1">
          <mxGeometry width="50" height="50" relative="1" as="geometry">
            <mxPoint x="1060" y="570" as="sourcePoint" />
            <mxPoint x="1110" y="520" as="targetPoint" />
          </mxGeometry>
        </mxCell>
        <mxCell id="u5d0pwJjkVFeFX7DWkDp-87" value="" style="endArrow=classic;html=1;rounded=0;exitX=0.5;exitY=1;exitDx=0;exitDy=0;entryX=0.333;entryY=0;entryDx=0;entryDy=0;entryPerimeter=0;" parent="1" source="u5d0pwJjkVFeFX7DWkDp-2" target="u5d0pwJjkVFeFX7DWkDp-64" edge="1">
          <mxGeometry width="50" height="50" relative="1" as="geometry">
            <mxPoint x="1270" y="380" as="sourcePoint" />
            <mxPoint x="1320" y="330" as="targetPoint" />
          </mxGeometry>
        </mxCell>
        <mxCell id="u5d0pwJjkVFeFX7DWkDp-89" value="Event History&lt;div&gt;US 01.02.03&lt;/div&gt;" style="rounded=0;whiteSpace=wrap;html=1;" parent="1" vertex="1">
          <mxGeometry x="1530" y="440" width="120" height="60" as="geometry" />
        </mxCell>
        <mxCell id="u5d0pwJjkVFeFX7DWkDp-90" value="" style="endArrow=classic;html=1;rounded=0;exitX=1;exitY=0.5;exitDx=0;exitDy=0;entryX=0.333;entryY=0;entryDx=0;entryDy=0;entryPerimeter=0;" parent="1" source="u5d0pwJjkVFeFX7DWkDp-2" target="u5d0pwJjkVFeFX7DWkDp-89" edge="1">
          <mxGeometry width="50" height="50" relative="1" as="geometry">
            <mxPoint x="1610" y="190" as="sourcePoint" />
            <mxPoint x="1660" y="140" as="targetPoint" />
          </mxGeometry>
        </mxCell>
        <mxCell id="u5d0pwJjkVFeFX7DWkDp-95" value="" style="endArrow=classic;html=1;rounded=0;exitX=0;exitY=0.5;exitDx=0;exitDy=0;" parent="1" source="u5d0pwJjkVFeFX7DWkDp-51" edge="1">
          <mxGeometry width="50" height="50" relative="1" as="geometry">
            <mxPoint x="810" y="690" as="sourcePoint" />
            <mxPoint x="610" y="740" as="targetPoint" />
          </mxGeometry>
        </mxCell>
        <mxCell id="u5d0pwJjkVFeFX7DWkDp-99" value="" style="endArrow=classic;html=1;rounded=0;" parent="1" edge="1">
          <mxGeometry width="50" height="50" relative="1" as="geometry">
            <mxPoint x="610" y="740" as="sourcePoint" />
            <mxPoint x="610" y="470" as="targetPoint" />
          </mxGeometry>
        </mxCell>
        <mxCell id="u5d0pwJjkVFeFX7DWkDp-102" value="" style="endArrow=classic;html=1;rounded=0;entryX=0;entryY=0.5;entryDx=0;entryDy=0;" parent="1" target="u5d0pwJjkVFeFX7DWkDp-45" edge="1">
          <mxGeometry width="50" height="50" relative="1" as="geometry">
            <mxPoint x="610" y="470" as="sourcePoint" />
            <mxPoint x="770" y="460" as="targetPoint" />
          </mxGeometry>
        </mxCell>
        <mxCell id="u5d0pwJjkVFeFX7DWkDp-103" value="Text" style="text;html=1;align=center;verticalAlign=middle;resizable=0;points=[];autosize=1;strokeColor=none;fillColor=none;" parent="1" vertex="1">
          <mxGeometry x="945" y="808" width="50" height="30" as="geometry" />
        </mxCell>
        <mxCell id="S_qpZ4t-oYRll_zXH8n6-1" value="&lt;b&gt;&lt;font style=&quot;font-size: 18px;&quot;&gt;&lt;u&gt;ENTRANT&lt;/u&gt;&lt;/font&gt;&lt;/b&gt;" style="text;html=1;align=center;verticalAlign=middle;whiteSpace=wrap;rounded=0;" vertex="1" parent="1">
          <mxGeometry x="980" y="50" width="130" height="30" as="geometry" />
        </mxCell>
      </root>
    </mxGraphModel>
  </diagram>
</mxfile>
